<svg xmlns="http://www.w3.org/2000/svg" viewBox="0 0 1024 1024">
<defs><filter id="ledGlowLk" x="-100%" y="-100%" width="300%" height="300%"><feGaussianBlur stdDeviation="7.20" result="blur"/><feMerge><feMergeNode in="blur"/><feMergeNode in="blur"/><feMergeNode in="SourceGraphic"/></feMerge></filter></defs>
<rect width="1024" height="1024" fill="#0A0D10"/>
<g transform="translate(312 190) scale(3.125)"><circle cx="64" cy="64" r="54" stroke="#F2A15F" stroke-width="1.5" pathLength="360" stroke-dasharray="2 7" fill="none" opacity="0.3"/><path d="M64 20 L108 64 L64 108 L20 64 Z" stroke="#E8B44C" stroke-width="5" fill="none" stroke-linejoin="round"/><circle cx="64" cy="20" r="7" fill="#2DD4BF"/><circle cx="108" cy="64" r="7" fill="#2DD4BF"/><circle cx="64" cy="108" r="7" fill="#2DD4BF"/><circle cx="20" cy="64" r="7" fill="#2DD4BF"/><circle cx="64" cy="64" r="9" fill="#F5F1E6"/></g>
<g transform="translate(202 654) scale(1.0406)">
  <rect x="0.00" y="0.00" width="16" height="16" rx="3.20" fill="rgba(255,255,255,0.05)"/>
  <rect x="18.00" y="0.00" width="16" height="16" rx="3.20" fill="#F4D9A0" filter="url(#ledGlowLk)"/>
  <rect x="36.00" y="0.00" width="16" height="16" rx="3.20" fill="#F4D9A0" filter="url(#ledGlowLk)"/>
  <rect x="54.00" y="0.00" width="16" height="16" rx="3.20" fill="#F4D9A0" filter="url(#ledGlowLk)"/>
  <rect x="72.00" y="0.00" width="16" height="16" rx="3.20" fill="rgba(255,255,255,0.05)"/>
  <rect x="0.00" y="18.00" width="16" height="16" rx="3.20" fill="#F4D9A0" filter="url(#ledGlowLk)"/>
  <rect x="18.00" y="18.00" width="16" height="16" rx="3.20" fill="rgba(255,255,255,0.05)"/>
  <rect x="36.00" y="18.00" width="16" height="16" rx="3.20" fill="rgba(255,255,255,0.05)"/>
  <rect x="54.00" y="18.00" width="16" height="16" rx="3.20" fill="rgba(255,255,255,0.05)"/>
  <rect x="72.00" y="18.00" width="16" height="16" rx="3.20" fill="#F4D9A0" filter="url(#ledGlowLk)"/>
  <rect x="0.00" y="36.00" width="16" height="16" rx="3.20" fill="#F4D9A0" filter="url(#ledGlowLk)"/>
  <rect x="18.00" y="36.00" width="16" height="16" rx="3.20" fill="rgba(255,255,255,0.05)"/>
  <rect x="36.00" y="36.00" width="16" height="16" rx="3.20" fill="rgba(255,255,255,0.05)"/>
  <rect x="54.00" y="36.00" width="16" height="16" rx="3.20" fill="rgba(255,255,255,0.05)"/>
  <rect x="72.00" y="36.00" width="16" height="16" rx="3.20" fill="#F4D9A0" filter="url(#ledGlowLk)"/>
  <rect x="0.00" y="54.00" width="16" height="16" rx="3.20" fill="#F4D9A0" filter="url(#ledGlowLk)"/>
  <rect x="18.00" y="54.00" width="16" height="16" rx="3.20" fill="#F4D9A0" filter="url(#ledGlowLk)"/>
  <rect x="36.00" y="54.00" width="16" height="16" rx="3.20" fill="#F4D9A0" filter="url(#ledGlowLk)"/>
  <rect x="54.00" y="54.00" width="16" height="16" rx="3.20" fill="#F4D9A0" filter="url(#ledGlowLk)"/>
  <rect x="72.00" y="54.00" width="16" height="16" rx="3.20" fill="#F4D9A0" filter="url(#ledGlowLk)"/>
  <rect x="0.00" y="72.00" width="16" height="16" rx="3.20" fill="#F4D9A0" filter="url(#ledGlowLk)"/>
  <rect x="18.00" y="72.00" width="16" height="16" rx="3.20" fill="rgba(255,255,255,0.05)"/>
  <rect x="36.00" y="72.00" width="16" height="16" rx="3.20" fill="rgba(255,255,255,0.05)"/>
  <rect x="54.00" y="72.00" width="16" height="16" rx="3.20" fill="rgba(255,255,255,0.05)"/>
  <rect x="72.00" y="72.00" width="16" height="16" rx="3.20" fill="#F4D9A0" filter="url(#ledGlowLk)"/>
  <rect x="0.00" y="90.00" width="16" height="16" rx="3.20" fill="#F4D9A0" filter="url(#ledGlowLk)"/>
  <rect x="18.00" y="90.00" width="16" height="16" rx="3.20" fill="rgba(255,255,255,0.05)"/>
  <rect x="36.00" y="90.00" width="16" height="16" rx="3.20" fill="rgba(255,255,255,0.05)"/>
  <rect x="54.00" y="90.00" width="16" height="16" rx="3.20" fill="rgba(255,255,255,0.05)"/>
  <rect x="72.00" y="90.00" width="16" height="16" rx="3.20" fill="#F4D9A0" filter="url(#ledGlowLk)"/>
  <rect x="0.00" y="108.00" width="16" height="16" rx="3.20" fill="#F4D9A0" filter="url(#ledGlowLk)"/>
  <rect x="18.00" y="108.00" width="16" height="16" rx="3.20" fill="rgba(255,255,255,0.05)"/>
  <rect x="36.00" y="108.00" width="16" height="16" rx="3.20" fill="rgba(255,255,255,0.05)"/>
  <rect x="54.00" y="108.00" width="16" height="16" rx="3.20" fill="rgba(255,255,255,0.05)"/>
  <rect x="72.00" y="108.00" width="16" height="16" rx="3.20" fill="#F4D9A0" filter="url(#ledGlowLk)"/>
  <rect x="94.00" y="0.00" width="16" height="16" rx="3.20" fill="#F4D9A0" filter="url(#ledGlowLk)"/>
  <rect x="112.00" y="0.00" width="16" height="16" rx="3.20" fill="#F4D9A0" filter="url(#ledGlowLk)"/>
  <rect x="130.00" y="0.00" width="16" height="16" rx="3.20" fill="#F4D9A0" filter="url(#ledGlowLk)"/>
  <rect x="148.00" y="0.00" width="16" height="16" rx="3.20" fill="#F4D9A0" filter="url(#ledGlowLk)"/>
  <rect x="166.00" y="0.00" width="16" height="16" rx="3.20" fill="#F4D9A0" filter="url(#ledGlowLk)"/>
  <rect x="94.00" y="18.00" width="16" height="16" rx="3.20" fill="rgba(255,255,255,0.05)"/>
  <rect x="112.00" y="18.00" width="16" height="16" rx="3.20" fill="rgba(255,255,255,0.05)"/>
  <rect x="130.00" y="18.00" width="16" height="16" rx="3.20" fill="#F4D9A0" filter="url(#ledGlowLk)"/>
  <rect x="148.00" y="18.00" width="16" height="16" rx="3.20" fill="rgba(255,255,255,0.05)"/>
  <rect x="166.00" y="18.00" width="16" height="16" rx="3.20" fill="rgba(255,255,255,0.05)"/>
  <rect x="94.00" y="36.00" width="16" height="16" rx="3.20" fill="rgba(255,255,255,0.05)"/>
  <rect x="112.00" y="36.00" width="16" height="16" rx="3.20" fill="rgba(255,255,255,0.05)"/>
  <rect x="130.00" y="36.00" width="16" height="16" rx="3.20" fill="#F4D9A0" filter="url(#ledGlowLk)"/>
  <rect x="148.00" y="36.00" width="16" height="16" rx="3.20" fill="rgba(255,255,255,0.05)"/>
  <rect x="166.00" y="36.00" width="16" height="16" rx="3.20" fill="rgba(255,255,255,0.05)"/>
  <rect x="94.00" y="54.00" width="16" height="16" rx="3.20" fill="rgba(255,255,255,0.05)"/>
  <rect x="112.00" y="54.00" width="16" height="16" rx="3.20" fill="rgba(255,255,255,0.05)"/>
  <rect x="130.00" y="54.00" width="16" height="16" rx="3.20" fill="#F4D9A0" filter="url(#ledGlowLk)"/>
  <rect x="148.00" y="54.00" width="16" height="16" rx="3.20" fill="rgba(255,255,255,0.05)"/>
  <rect x="166.00" y="54.00" width="16" height="16" rx="3.20" fill="rgba(255,255,255,0.05)"/>
  <rect x="94.00" y="72.00" width="16" height="16" rx="3.20" fill="rgba(255,255,255,0.05)"/>
  <rect x="112.00" y="72.00" width="16" height="16" rx="3.20" fill="rgba(255,255,255,0.05)"/>
  <rect x="130.00" y="72.00" width="16" height="16" rx="3.20" fill="#F4D9A0" filter="url(#ledGlowLk)"/>
  <rect x="148.00" y="72.00" width="16" height="16" rx="3.20" fill="rgba(255,255,255,0.05)"/>
  <rect x="166.00" y="72.00" width="16" height="16" rx="3.20" fill="rgba(255,255,255,0.05)"/>
  <rect x="94.00" y="90.00" width="16" height="16" rx="3.20" fill="rgba(255,255,255,0.05)"/>
  <rect x="112.00" y="90.00" width="16" height="16" rx="3.20" fill="rgba(255,255,255,0.05)"/>
  <rect x="130.00" y="90.00" width="16" height="16" rx="3.20" fill="#F4D9A0" filter="url(#ledGlowLk)"/>
  <rect x="148.00" y="90.00" width="16" height="16" rx="3.20" fill="rgba(255,255,255,0.05)"/>
  <rect x="166.00" y="90.00" width="16" height="16" rx="3.20" fill="rgba(255,255,255,0.05)"/>
  <rect x="94.00" y="108.00" width="16" height="16" rx="3.20" fill="#F4D9A0" filter="url(#ledGlowLk)"/>
  <rect x="112.00" y="108.00" width="16" height="16" rx="3.20" fill="#F4D9A0" filter="url(#ledGlowLk)"/>
  <rect x="130.00" y="108.00" width="16" height="16" rx="3.20" fill="#F4D9A0" filter="url(#ledGlowLk)"/>
  <rect x="148.00" y="108.00" width="16" height="16" rx="3.20" fill="#F4D9A0" filter="url(#ledGlowLk)"/>
  <rect x="166.00" y="108.00" width="16" height="16" rx="3.20" fill="#F4D9A0" filter="url(#ledGlowLk)"/>
  <rect x="188.00" y="46.10" width="9.60" height="9.60" rx="1.92" fill="rgba(255,255,255,0.05)"/>
  <rect x="199.10" y="46.10" width="9.60" height="9.60" rx="1.92" fill="#2DD4BF" filter="url(#ledGlowLk)"/>
  <rect x="210.20" y="46.10" width="9.60" height="9.60" rx="1.92" fill="rgba(255,255,255,0.05)"/>
  <rect x="188.00" y="57.20" width="9.60" height="9.60" rx="1.92" fill="#2DD4BF" filter="url(#ledGlowLk)"/>
  <rect x="199.10" y="57.20" width="9.60" height="9.60" rx="1.92" fill="rgba(255,255,255,0.05)"/>
  <rect x="210.20" y="57.20" width="9.60" height="9.60" rx="1.92" fill="#2DD4BF" filter="url(#ledGlowLk)"/>
  <rect x="188.00" y="68.30" width="9.60" height="9.60" rx="1.92" fill="rgba(255,255,255,0.05)"/>
  <rect x="199.10" y="68.30" width="9.60" height="9.60" rx="1.92" fill="#2DD4BF" filter="url(#ledGlowLk)"/>
  <rect x="210.20" y="68.30" width="9.60" height="9.60" rx="1.92" fill="rgba(255,255,255,0.05)"/>
  <rect x="225.80" y="0.00" width="16" height="16" rx="3.20" fill="#F5F1E6" filter="url(#ledGlowLk)"/>
  <rect x="243.80" y="0.00" width="16" height="16" rx="3.20" fill="#F5F1E6" filter="url(#ledGlowLk)"/>
  <rect x="261.80" y="0.00" width="16" height="16" rx="3.20" fill="#F5F1E6" filter="url(#ledGlowLk)"/>
  <rect x="279.80" y="0.00" width="16" height="16" rx="3.20" fill="#F5F1E6" filter="url(#ledGlowLk)"/>
  <rect x="297.80" y="0.00" width="16" height="16" rx="3.20" fill="rgba(255,255,255,0.05)"/>
  <rect x="225.80" y="18.00" width="16" height="16" rx="3.20" fill="#F5F1E6" filter="url(#ledGlowLk)"/>
  <rect x="243.80" y="18.00" width="16" height="16" rx="3.20" fill="rgba(255,255,255,0.05)"/>
  <rect x="261.80" y="18.00" width="16" height="16" rx="3.20" fill="rgba(255,255,255,0.05)"/>
  <rect x="279.80" y="18.00" width="16" height="16" rx="3.20" fill="rgba(255,255,255,0.05)"/>
  <rect x="297.80" y="18.00" width="16" height="16" rx="3.20" fill="#F5F1E6" filter="url(#ledGlowLk)"/>
  <rect x="225.80" y="36.00" width="16" height="16" rx="3.20" fill="#F5F1E6" filter="url(#ledGlowLk)"/>
  <rect x="243.80" y="36.00" width="16" height="16" rx="3.20" fill="rgba(255,255,255,0.05)"/>
  <rect x="261.80" y="36.00" width="16" height="16" rx="3.20" fill="rgba(255,255,255,0.05)"/>
  <rect x="279.80" y="36.00" width="16" height="16" rx="3.20" fill="rgba(255,255,255,0.05)"/>
  <rect x="297.80" y="36.00" width="16" height="16" rx="3.20" fill="#F5F1E6" filter="url(#ledGlowLk)"/>
  <rect x="225.80" y="54.00" width="16" height="16" rx="3.20" fill="#F5F1E6" filter="url(#ledGlowLk)"/>
  <rect x="243.80" y="54.00" width="16" height="16" rx="3.20" fill="#F5F1E6" filter="url(#ledGlowLk)"/>
  <rect x="261.80" y="54.00" width="16" height="16" rx="3.20" fill="#F5F1E6" filter="url(#ledGlowLk)"/>
  <rect x="279.80" y="54.00" width="16" height="16" rx="3.20" fill="#F5F1E6" filter="url(#ledGlowLk)"/>
  <rect x="297.80" y="54.00" width="16" height="16" rx="3.20" fill="rgba(255,255,255,0.05)"/>
  <rect x="225.80" y="72.00" width="16" height="16" rx="3.20" fill="#F5F1E6" filter="url(#ledGlowLk)"/>
  <rect x="243.80" y="72.00" width="16" height="16" rx="3.20" fill="rgba(255,255,255,0.05)"/>
  <rect x="261.80" y="72.00" width="16" height="16" rx="3.20" fill="rgba(255,255,255,0.05)"/>
  <rect x="279.80" y="72.00" width="16" height="16" rx="3.20" fill="rgba(255,255,255,0.05)"/>
  <rect x="297.80" y="72.00" width="16" height="16" rx="3.20" fill="#F5F1E6" filter="url(#ledGlowLk)"/>
  <rect x="225.80" y="90.00" width="16" height="16" rx="3.20" fill="#F5F1E6" filter="url(#ledGlowLk)"/>
  <rect x="243.80" y="90.00" width="16" height="16" rx="3.20" fill="rgba(255,255,255,0.05)"/>
  <rect x="261.80" y="90.00" width="16" height="16" rx="3.20" fill="rgba(255,255,255,0.05)"/>
  <rect x="279.80" y="90.00" width="16" height="16" rx="3.20" fill="rgba(255,255,255,0.05)"/>
  <rect x="297.80" y="90.00" width="16" height="16" rx="3.20" fill="#F5F1E6" filter="url(#ledGlowLk)"/>
  <rect x="225.80" y="108.00" width="16" height="16" rx="3.20" fill="#F5F1E6" filter="url(#ledGlowLk)"/>
  <rect x="243.80" y="108.00" width="16" height="16" rx="3.20" fill="#F5F1E6" filter="url(#ledGlowLk)"/>
  <rect x="261.80" y="108.00" width="16" height="16" rx="3.20" fill="#F5F1E6" filter="url(#ledGlowLk)"/>
  <rect x="279.80" y="108.00" width="16" height="16" rx="3.20" fill="#F5F1E6" filter="url(#ledGlowLk)"/>
  <rect x="297.80" y="108.00" width="16" height="16" rx="3.20" fill="rgba(255,255,255,0.05)"/>
  <rect x="319.80" y="0.00" width="16" height="16" rx="3.20" fill="rgba(255,255,255,0.05)"/>
  <rect x="337.80" y="0.00" width="16" height="16" rx="3.20" fill="#F5F1E6" filter="url(#ledGlowLk)"/>
  <rect x="355.80" y="0.00" width="16" height="16" rx="3.20" fill="#F5F1E6" filter="url(#ledGlowLk)"/>
  <rect x="373.80" y="0.00" width="16" height="16" rx="3.20" fill="#F5F1E6" filter="url(#ledGlowLk)"/>
  <rect x="391.80" y="0.00" width="16" height="16" rx="3.20" fill="rgba(255,255,255,0.05)"/>
  <rect x="319.80" y="18.00" width="16" height="16" rx="3.20" fill="#F5F1E6" filter="url(#ledGlowLk)"/>
  <rect x="337.80" y="18.00" width="16" height="16" rx="3.20" fill="rgba(255,255,255,0.05)"/>
  <rect x="355.80" y="18.00" width="16" height="16" rx="3.20" fill="rgba(255,255,255,0.05)"/>
  <rect x="373.80" y="18.00" width="16" height="16" rx="3.20" fill="rgba(255,255,255,0.05)"/>
  <rect x="391.80" y="18.00" width="16" height="16" rx="3.20" fill="#F5F1E6" filter="url(#ledGlowLk)"/>
  <rect x="319.80" y="36.00" width="16" height="16" rx="3.20" fill="#F5F1E6" filter="url(#ledGlowLk)"/>
  <rect x="337.80" y="36.00" width="16" height="16" rx="3.20" fill="rgba(255,255,255,0.05)"/>
  <rect x="355.80" y="36.00" width="16" height="16" rx="3.20" fill="rgba(255,255,255,0.05)"/>
  <rect x="373.80" y="36.00" width="16" height="16" rx="3.20" fill="rgba(255,255,255,0.05)"/>
  <rect x="391.80" y="36.00" width="16" height="16" rx="3.20" fill="#F5F1E6" filter="url(#ledGlowLk)"/>
  <rect x="319.80" y="54.00" width="16" height="16" rx="3.20" fill="#F5F1E6" filter="url(#ledGlowLk)"/>
  <rect x="337.80" y="54.00" width="16" height="16" rx="3.20" fill="#F5F1E6" filter="url(#ledGlowLk)"/>
  <rect x="355.80" y="54.00" width="16" height="16" rx="3.20" fill="#F5F1E6" filter="url(#ledGlowLk)"/>
  <rect x="373.80" y="54.00" width="16" height="16" rx="3.20" fill="#F5F1E6" filter="url(#ledGlowLk)"/>
  <rect x="391.80" y="54.00" width="16" height="16" rx="3.20" fill="#F5F1E6" filter="url(#ledGlowLk)"/>
  <rect x="319.80" y="72.00" width="16" height="16" rx="3.20" fill="#F5F1E6" filter="url(#ledGlowLk)"/>
  <rect x="337.80" y="72.00" width="16" height="16" rx="3.20" fill="rgba(255,255,255,0.05)"/>
  <rect x="355.80" y="72.00" width="16" height="16" rx="3.20" fill="rgba(255,255,255,0.05)"/>
  <rect x="373.80" y="72.00" width="16" height="16" rx="3.20" fill="rgba(255,255,255,0.05)"/>
  <rect x="391.80" y="72.00" width="16" height="16" rx="3.20" fill="#F5F1E6" filter="url(#ledGlowLk)"/>
  <rect x="319.80" y="90.00" width="16" height="16" rx="3.20" fill="#F5F1E6" filter="url(#ledGlowLk)"/>
  <rect x="337.80" y="90.00" width="16" height="16" rx="3.20" fill="rgba(255,255,255,0.05)"/>
  <rect x="355.80" y="90.00" width="16" height="16" rx="3.20" fill="rgba(255,255,255,0.05)"/>
  <rect x="373.80" y="90.00" width="16" height="16" rx="3.20" fill="rgba(255,255,255,0.05)"/>
  <rect x="391.80" y="90.00" width="16" height="16" rx="3.20" fill="#F5F1E6" filter="url(#ledGlowLk)"/>
  <rect x="319.80" y="108.00" width="16" height="16" rx="3.20" fill="#F5F1E6" filter="url(#ledGlowLk)"/>
  <rect x="337.80" y="108.00" width="16" height="16" rx="3.20" fill="rgba(255,255,255,0.05)"/>
  <rect x="355.80" y="108.00" width="16" height="16" rx="3.20" fill="rgba(255,255,255,0.05)"/>
  <rect x="373.80" y="108.00" width="16" height="16" rx="3.20" fill="rgba(255,255,255,0.05)"/>
  <rect x="391.80" y="108.00" width="16" height="16" rx="3.20" fill="#F5F1E6" filter="url(#ledGlowLk)"/>
  <rect x="413.80" y="0.00" width="16" height="16" rx="3.20" fill="rgba(255,255,255,0.05)"/>
  <rect x="431.80" y="0.00" width="16" height="16" rx="3.20" fill="#F5F1E6" filter="url(#ledGlowLk)"/>
  <rect x="449.80" y="0.00" width="16" height="16" rx="3.20" fill="#F5F1E6" filter="url(#ledGlowLk)"/>
  <rect x="467.80" y="0.00" width="16" height="16" rx="3.20" fill="#F5F1E6" filter="url(#ledGlowLk)"/>
  <rect x="485.80" y="0.00" width="16" height="16" rx="3.20" fill="#F5F1E6" filter="url(#ledGlowLk)"/>
  <rect x="413.80" y="18.00" width="16" height="16" rx="3.20" fill="#F5F1E6" filter="url(#ledGlowLk)"/>
  <rect x="431.80" y="18.00" width="16" height="16" rx="3.20" fill="rgba(255,255,255,0.05)"/>
  <rect x="449.80" y="18.00" width="16" height="16" rx="3.20" fill="rgba(255,255,255,0.05)"/>
  <rect x="467.80" y="18.00" width="16" height="16" rx="3.20" fill="rgba(255,255,255,0.05)"/>
  <rect x="485.80" y="18.00" width="16" height="16" rx="3.20" fill="rgba(255,255,255,0.05)"/>
  <rect x="413.80" y="36.00" width="16" height="16" rx="3.20" fill="#F5F1E6" filter="url(#ledGlowLk)"/>
  <rect x="431.80" y="36.00" width="16" height="16" rx="3.20" fill="rgba(255,255,255,0.05)"/>
  <rect x="449.80" y="36.00" width="16" height="16" rx="3.20" fill="rgba(255,255,255,0.05)"/>
  <rect x="467.80" y="36.00" width="16" height="16" rx="3.20" fill="rgba(255,255,255,0.05)"/>
  <rect x="485.80" y="36.00" width="16" height="16" rx="3.20" fill="rgba(255,255,255,0.05)"/>
  <rect x="413.80" y="54.00" width="16" height="16" rx="3.20" fill="rgba(255,255,255,0.05)"/>
  <rect x="431.80" y="54.00" width="16" height="16" rx="3.20" fill="#F5F1E6" filter="url(#ledGlowLk)"/>
  <rect x="449.80" y="54.00" width="16" height="16" rx="3.20" fill="#F5F1E6" filter="url(#ledGlowLk)"/>
  <rect x="467.80" y="54.00" width="16" height="16" rx="3.20" fill="#F5F1E6" filter="url(#ledGlowLk)"/>
  <rect x="485.80" y="54.00" width="16" height="16" rx="3.20" fill="rgba(255,255,255,0.05)"/>
  <rect x="413.80" y="72.00" width="16" height="16" rx="3.20" fill="rgba(255,255,255,0.05)"/>
  <rect x="431.80" y="72.00" width="16" height="16" rx="3.20" fill="rgba(255,255,255,0.05)"/>
  <rect x="449.80" y="72.00" width="16" height="16" rx="3.20" fill="rgba(255,255,255,0.05)"/>
  <rect x="467.80" y="72.00" width="16" height="16" rx="3.20" fill="rgba(255,255,255,0.05)"/>
  <rect x="485.80" y="72.00" width="16" height="16" rx="3.20" fill="#F5F1E6" filter="url(#ledGlowLk)"/>
  <rect x="413.80" y="90.00" width="16" height="16" rx="3.20" fill="rgba(255,255,255,0.05)"/>
  <rect x="431.80" y="90.00" width="16" height="16" rx="3.20" fill="rgba(255,255,255,0.05)"/>
  <rect x="449.80" y="90.00" width="16" height="16" rx="3.20" fill="rgba(255,255,255,0.05)"/>
  <rect x="467.80" y="90.00" width="16" height="16" rx="3.20" fill="rgba(255,255,255,0.05)"/>
  <rect x="485.80" y="90.00" width="16" height="16" rx="3.20" fill="#F5F1E6" filter="url(#ledGlowLk)"/>
  <rect x="413.80" y="108.00" width="16" height="16" rx="3.20" fill="#F5F1E6" filter="url(#ledGlowLk)"/>
  <rect x="431.80" y="108.00" width="16" height="16" rx="3.20" fill="#F5F1E6" filter="url(#ledGlowLk)"/>
  <rect x="449.80" y="108.00" width="16" height="16" rx="3.20" fill="#F5F1E6" filter="url(#ledGlowLk)"/>
  <rect x="467.80" y="108.00" width="16" height="16" rx="3.20" fill="#F5F1E6" filter="url(#ledGlowLk)"/>
  <rect x="485.80" y="108.00" width="16" height="16" rx="3.20" fill="rgba(255,255,255,0.05)"/>
  <rect x="507.80" y="0.00" width="16" height="16" rx="3.20" fill="#F5F1E6" filter="url(#ledGlowLk)"/>
  <rect x="525.80" y="0.00" width="16" height="16" rx="3.20" fill="#F5F1E6" filter="url(#ledGlowLk)"/>
  <rect x="543.80" y="0.00" width="16" height="16" rx="3.20" fill="#F5F1E6" filter="url(#ledGlowLk)"/>
  <rect x="561.80" y="0.00" width="16" height="16" rx="3.20" fill="#F5F1E6" filter="url(#ledGlowLk)"/>
  <rect x="579.80" y="0.00" width="16" height="16" rx="3.20" fill="#F5F1E6" filter="url(#ledGlowLk)"/>
  <rect x="507.80" y="18.00" width="16" height="16" rx="3.20" fill="#F5F1E6" filter="url(#ledGlowLk)"/>
  <rect x="525.80" y="18.00" width="16" height="16" rx="3.20" fill="rgba(255,255,255,0.05)"/>
  <rect x="543.80" y="18.00" width="16" height="16" rx="3.20" fill="rgba(255,255,255,0.05)"/>
  <rect x="561.80" y="18.00" width="16" height="16" rx="3.20" fill="rgba(255,255,255,0.05)"/>
  <rect x="579.80" y="18.00" width="16" height="16" rx="3.20" fill="rgba(255,255,255,0.05)"/>
  <rect x="507.80" y="36.00" width="16" height="16" rx="3.20" fill="#F5F1E6" filter="url(#ledGlowLk)"/>
  <rect x="525.80" y="36.00" width="16" height="16" rx="3.20" fill="rgba(255,255,255,0.05)"/>
  <rect x="543.80" y="36.00" width="16" height="16" rx="3.20" fill="rgba(255,255,255,0.05)"/>
  <rect x="561.80" y="36.00" width="16" height="16" rx="3.20" fill="rgba(255,255,255,0.05)"/>
  <rect x="579.80" y="36.00" width="16" height="16" rx="3.20" fill="rgba(255,255,255,0.05)"/>
  <rect x="507.80" y="54.00" width="16" height="16" rx="3.20" fill="#F5F1E6" filter="url(#ledGlowLk)"/>
  <rect x="525.80" y="54.00" width="16" height="16" rx="3.20" fill="#F5F1E6" filter="url(#ledGlowLk)"/>
  <rect x="543.80" y="54.00" width="16" height="16" rx="3.20" fill="#F5F1E6" filter="url(#ledGlowLk)"/>
  <rect x="561.80" y="54.00" width="16" height="16" rx="3.20" fill="#F5F1E6" filter="url(#ledGlowLk)"/>
  <rect x="579.80" y="54.00" width="16" height="16" rx="3.20" fill="rgba(255,255,255,0.05)"/>
  <rect x="507.80" y="72.00" width="16" height="16" rx="3.20" fill="#F5F1E6" filter="url(#ledGlowLk)"/>
  <rect x="525.80" y="72.00" width="16" height="16" rx="3.20" fill="rgba(255,255,255,0.05)"/>
  <rect x="543.80" y="72.00" width="16" height="16" rx="3.20" fill="rgba(255,255,255,0.05)"/>
  <rect x="561.80" y="72.00" width="16" height="16" rx="3.20" fill="rgba(255,255,255,0.05)"/>
  <rect x="579.80" y="72.00" width="16" height="16" rx="3.20" fill="rgba(255,255,255,0.05)"/>
  <rect x="507.80" y="90.00" width="16" height="16" rx="3.20" fill="#F5F1E6" filter="url(#ledGlowLk)"/>
  <rect x="525.80" y="90.00" width="16" height="16" rx="3.20" fill="rgba(255,255,255,0.05)"/>
  <rect x="543.80" y="90.00" width="16" height="16" rx="3.20" fill="rgba(255,255,255,0.05)"/>
  <rect x="561.80" y="90.00" width="16" height="16" rx="3.20" fill="rgba(255,255,255,0.05)"/>
  <rect x="579.80" y="90.00" width="16" height="16" rx="3.20" fill="rgba(255,255,255,0.05)"/>
  <rect x="507.80" y="108.00" width="16" height="16" rx="3.20" fill="#F5F1E6" filter="url(#ledGlowLk)"/>
  <rect x="525.80" y="108.00" width="16" height="16" rx="3.20" fill="#F5F1E6" filter="url(#ledGlowLk)"/>
  <rect x="543.80" y="108.00" width="16" height="16" rx="3.20" fill="#F5F1E6" filter="url(#ledGlowLk)"/>
  <rect x="561.80" y="108.00" width="16" height="16" rx="3.20" fill="#F5F1E6" filter="url(#ledGlowLk)"/>
  <rect x="579.80" y="108.00" width="16" height="16" rx="3.20" fill="#F5F1E6" filter="url(#ledGlowLk)"/>
</g>
</svg>
