<svg xmlns="http://www.w3.org/2000/svg" viewBox="-24 -24 643.8 172">
<defs><filter id="ledGlowWm" x="-100%" y="-100%" width="300%" height="300%"><feGaussianBlur stdDeviation="7.20" result="blur"/><feMerge><feMergeNode in="blur"/><feMergeNode in="blur"/><feMergeNode in="SourceGraphic"/></feMerge></filter></defs>
  <rect x="0.00" y="0.00" width="16" height="16" rx="3.20" fill="rgba(255,255,255,0.05)"/>
  <rect x="18.00" y="0.00" width="16" height="16" rx="3.20" fill="#F4D9A0" filter="url(#ledGlowWm)"/>
  <rect x="36.00" y="0.00" width="16" height="16" rx="3.20" fill="#F4D9A0" filter="url(#ledGlowWm)"/>
  <rect x="54.00" y="0.00" width="16" height="16" rx="3.20" fill="#F4D9A0" filter="url(#ledGlowWm)"/>
  <rect x="72.00" y="0.00" width="16" height="16" rx="3.20" fill="rgba(255,255,255,0.05)"/>
  <rect x="0.00" y="18.00" width="16" height="16" rx="3.20" fill="#F4D9A0" filter="url(#ledGlowWm)"/>
  <rect x="18.00" y="18.00" width="16" height="16" rx="3.20" fill="rgba(255,255,255,0.05)"/>
  <rect x="36.00" y="18.00" width="16" height="16" rx="3.20" fill="rgba(255,255,255,0.05)"/>
  <rect x="54.00" y="18.00" width="16" height="16" rx="3.20" fill="rgba(255,255,255,0.05)"/>
  <rect x="72.00" y="18.00" width="16" height="16" rx="3.20" fill="#F4D9A0" filter="url(#ledGlowWm)"/>
  <rect x="0.00" y="36.00" width="16" height="16" rx="3.20" fill="#F4D9A0" filter="url(#ledGlowWm)"/>
  <rect x="18.00" y="36.00" width="16" height="16" rx="3.20" fill="rgba(255,255,255,0.05)"/>
  <rect x="36.00" y="36.00" width="16" height="16" rx="3.20" fill="rgba(255,255,255,0.05)"/>
  <rect x="54.00" y="36.00" width="16" height="16" rx="3.20" fill="rgba(255,255,255,0.05)"/>
  <rect x="72.00" y="36.00" width="16" height="16" rx="3.20" fill="#F4D9A0" filter="url(#ledGlowWm)"/>
  <rect x="0.00" y="54.00" width="16" height="16" rx="3.20" fill="#F4D9A0" filter="url(#ledGlowWm)"/>
  <rect x="18.00" y="54.00" width="16" height="16" rx="3.20" fill="#F4D9A0" filter="url(#ledGlowWm)"/>
  <rect x="36.00" y="54.00" width="16" height="16" rx="3.20" fill="#F4D9A0" filter="url(#ledGlowWm)"/>
  <rect x="54.00" y="54.00" width="16" height="16" rx="3.20" fill="#F4D9A0" filter="url(#ledGlowWm)"/>
  <rect x="72.00" y="54.00" width="16" height="16" rx="3.20" fill="#F4D9A0" filter="url(#ledGlowWm)"/>
  <rect x="0.00" y="72.00" width="16" height="16" rx="3.20" fill="#F4D9A0" filter="url(#ledGlowWm)"/>
  <rect x="18.00" y="72.00" width="16" height="16" rx="3.20" fill="rgba(255,255,255,0.05)"/>
  <rect x="36.00" y="72.00" width="16" height="16" rx="3.20" fill="rgba(255,255,255,0.05)"/>
  <rect x="54.00" y="72.00" width="16" height="16" rx="3.20" fill="rgba(255,255,255,0.05)"/>
  <rect x="72.00" y="72.00" width="16" height="16" rx="3.20" fill="#F4D9A0" filter="url(#ledGlowWm)"/>
  <rect x="0.00" y="90.00" width="16" height="16" rx="3.20" fill="#F4D9A0" filter="url(#ledGlowWm)"/>
  <rect x="18.00" y="90.00" width="16" height="16" rx="3.20" fill="rgba(255,255,255,0.05)"/>
  <rect x="36.00" y="90.00" width="16" height="16" rx="3.20" fill="rgba(255,255,255,0.05)"/>
  <rect x="54.00" y="90.00" width="16" height="16" rx="3.20" fill="rgba(255,255,255,0.05)"/>
  <rect x="72.00" y="90.00" width="16" height="16" rx="3.20" fill="#F4D9A0" filter="url(#ledGlowWm)"/>
  <rect x="0.00" y="108.00" width="16" height="16" rx="3.20" fill="#F4D9A0" filter="url(#ledGlowWm)"/>
  <rect x="18.00" y="108.00" width="16" height="16" rx="3.20" fill="rgba(255,255,255,0.05)"/>
  <rect x="36.00" y="108.00" width="16" height="16" rx="3.20" fill="rgba(255,255,255,0.05)"/>
  <rect x="54.00" y="108.00" width="16" height="16" rx="3.20" fill="rgba(255,255,255,0.05)"/>
  <rect x="72.00" y="108.00" width="16" height="16" rx="3.20" fill="#F4D9A0" filter="url(#ledGlowWm)"/>
  <rect x="94.00" y="0.00" width="16" height="16" rx="3.20" fill="#F4D9A0" filter="url(#ledGlowWm)"/>
  <rect x="112.00" y="0.00" width="16" height="16" rx="3.20" fill="#F4D9A0" filter="url(#ledGlowWm)"/>
  <rect x="130.00" y="0.00" width="16" height="16" rx="3.20" fill="#F4D9A0" filter="url(#ledGlowWm)"/>
  <rect x="148.00" y="0.00" width="16" height="16" rx="3.20" fill="#F4D9A0" filter="url(#ledGlowWm)"/>
  <rect x="166.00" y="0.00" width="16" height="16" rx="3.20" fill="#F4D9A0" filter="url(#ledGlowWm)"/>
  <rect x="94.00" y="18.00" width="16" height="16" rx="3.20" fill="rgba(255,255,255,0.05)"/>
  <rect x="112.00" y="18.00" width="16" height="16" rx="3.20" fill="rgba(255,255,255,0.05)"/>
  <rect x="130.00" y="18.00" width="16" height="16" rx="3.20" fill="#F4D9A0" filter="url(#ledGlowWm)"/>
  <rect x="148.00" y="18.00" width="16" height="16" rx="3.20" fill="rgba(255,255,255,0.05)"/>
  <rect x="166.00" y="18.00" width="16" height="16" rx="3.20" fill="rgba(255,255,255,0.05)"/>
  <rect x="94.00" y="36.00" width="16" height="16" rx="3.20" fill="rgba(255,255,255,0.05)"/>
  <rect x="112.00" y="36.00" width="16" height="16" rx="3.20" fill="rgba(255,255,255,0.05)"/>
  <rect x="130.00" y="36.00" width="16" height="16" rx="3.20" fill="#F4D9A0" filter="url(#ledGlowWm)"/>
  <rect x="148.00" y="36.00" width="16" height="16" rx="3.20" fill="rgba(255,255,255,0.05)"/>
  <rect x="166.00" y="36.00" width="16" height="16" rx="3.20" fill="rgba(255,255,255,0.05)"/>
  <rect x="94.00" y="54.00" width="16" height="16" rx="3.20" fill="rgba(255,255,255,0.05)"/>
  <rect x="112.00" y="54.00" width="16" height="16" rx="3.20" fill="rgba(255,255,255,0.05)"/>
  <rect x="130.00" y="54.00" width="16" height="16" rx="3.20" fill="#F4D9A0" filter="url(#ledGlowWm)"/>
  <rect x="148.00" y="54.00" width="16" height="16" rx="3.20" fill="rgba(255,255,255,0.05)"/>
  <rect x="166.00" y="54.00" width="16" height="16" rx="3.20" fill="rgba(255,255,255,0.05)"/>
  <rect x="94.00" y="72.00" width="16" height="16" rx="3.20" fill="rgba(255,255,255,0.05)"/>
  <rect x="112.00" y="72.00" width="16" height="16" rx="3.20" fill="rgba(255,255,255,0.05)"/>
  <rect x="130.00" y="72.00" width="16" height="16" rx="3.20" fill="#F4D9A0" filter="url(#ledGlowWm)"/>
  <rect x="148.00" y="72.00" width="16" height="16" rx="3.20" fill="rgba(255,255,255,0.05)"/>
  <rect x="166.00" y="72.00" width="16" height="16" rx="3.20" fill="rgba(255,255,255,0.05)"/>
  <rect x="94.00" y="90.00" width="16" height="16" rx="3.20" fill="rgba(255,255,255,0.05)"/>
  <rect x="112.00" y="90.00" width="16" height="16" rx="3.20" fill="rgba(255,255,255,0.05)"/>
  <rect x="130.00" y="90.00" width="16" height="16" rx="3.20" fill="#F4D9A0" filter="url(#ledGlowWm)"/>
  <rect x="148.00" y="90.00" width="16" height="16" rx="3.20" fill="rgba(255,255,255,0.05)"/>
  <rect x="166.00" y="90.00" width="16" height="16" rx="3.20" fill="rgba(255,255,255,0.05)"/>
  <rect x="94.00" y="108.00" width="16" height="16" rx="3.20" fill="#F4D9A0" filter="url(#ledGlowWm)"/>
  <rect x="112.00" y="108.00" width="16" height="16" rx="3.20" fill="#F4D9A0" filter="url(#ledGlowWm)"/>
  <rect x="130.00" y="108.00" width="16" height="16" rx="3.20" fill="#F4D9A0" filter="url(#ledGlowWm)"/>
  <rect x="148.00" y="108.00" width="16" height="16" rx="3.20" fill="#F4D9A0" filter="url(#ledGlowWm)"/>
  <rect x="166.00" y="108.00" width="16" height="16" rx="3.20" fill="#F4D9A0" filter="url(#ledGlowWm)"/>
  <rect x="188.00" y="46.10" width="9.60" height="9.60" rx="1.92" fill="rgba(255,255,255,0.05)"/>
  <rect x="199.10" y="46.10" width="9.60" height="9.60" rx="1.92" fill="#2DD4BF" filter="url(#ledGlowWm)"/>
  <rect x="210.20" y="46.10" width="9.60" height="9.60" rx="1.92" fill="rgba(255,255,255,0.05)"/>
  <rect x="188.00" y="57.20" width="9.60" height="9.60" rx="1.92" fill="#2DD4BF" filter="url(#ledGlowWm)"/>
  <rect x="199.10" y="57.20" width="9.60" height="9.60" rx="1.92" fill="rgba(255,255,255,0.05)"/>
  <rect x="210.20" y="57.20" width="9.60" height="9.60" rx="1.92" fill="#2DD4BF" filter="url(#ledGlowWm)"/>
  <rect x="188.00" y="68.30" width="9.60" height="9.60" rx="1.92" fill="rgba(255,255,255,0.05)"/>
  <rect x="199.10" y="68.30" width="9.60" height="9.60" rx="1.92" fill="#2DD4BF" filter="url(#ledGlowWm)"/>
  <rect x="210.20" y="68.30" width="9.60" height="9.60" rx="1.92" fill="rgba(255,255,255,0.05)"/>
  <rect x="225.80" y="0.00" width="16" height="16" rx="3.20" fill="#F5F1E6" filter="url(#ledGlowWm)"/>
  <rect x="243.80" y="0.00" width="16" height="16" rx="3.20" fill="#F5F1E6" filter="url(#ledGlowWm)"/>
  <rect x="261.80" y="0.00" width="16" height="16" rx="3.20" fill="#F5F1E6" filter="url(#ledGlowWm)"/>
  <rect x="279.80" y="0.00" width="16" height="16" rx="3.20" fill="#F5F1E6" filter="url(#ledGlowWm)"/>
  <rect x="297.80" y="0.00" width="16" height="16" rx="3.20" fill="rgba(255,255,255,0.05)"/>
  <rect x="225.80" y="18.00" width="16" height="16" rx="3.20" fill="#F5F1E6" filter="url(#ledGlowWm)"/>
  <rect x="243.80" y="18.00" width="16" height="16" rx="3.20" fill="rgba(255,255,255,0.05)"/>
  <rect x="261.80" y="18.00" width="16" height="16" rx="3.20" fill="rgba(255,255,255,0.05)"/>
  <rect x="279.80" y="18.00" width="16" height="16" rx="3.20" fill="rgba(255,255,255,0.05)"/>
  <rect x="297.80" y="18.00" width="16" height="16" rx="3.20" fill="#F5F1E6" filter="url(#ledGlowWm)"/>
  <rect x="225.80" y="36.00" width="16" height="16" rx="3.20" fill="#F5F1E6" filter="url(#ledGlowWm)"/>
  <rect x="243.80" y="36.00" width="16" height="16" rx="3.20" fill="rgba(255,255,255,0.05)"/>
  <rect x="261.80" y="36.00" width="16" height="16" rx="3.20" fill="rgba(255,255,255,0.05)"/>
  <rect x="279.80" y="36.00" width="16" height="16" rx="3.20" fill="rgba(255,255,255,0.05)"/>
  <rect x="297.80" y="36.00" width="16" height="16" rx="3.20" fill="#F5F1E6" filter="url(#ledGlowWm)"/>
  <rect x="225.80" y="54.00" width="16" height="16" rx="3.20" fill="#F5F1E6" filter="url(#ledGlowWm)"/>
  <rect x="243.80" y="54.00" width="16" height="16" rx="3.20" fill="#F5F1E6" filter="url(#ledGlowWm)"/>
  <rect x="261.80" y="54.00" width="16" height="16" rx="3.20" fill="#F5F1E6" filter="url(#ledGlowWm)"/>
  <rect x="279.80" y="54.00" width="16" height="16" rx="3.20" fill="#F5F1E6" filter="url(#ledGlowWm)"/>
  <rect x="297.80" y="54.00" width="16" height="16" rx="3.20" fill="rgba(255,255,255,0.05)"/>
  <rect x="225.80" y="72.00" width="16" height="16" rx="3.20" fill="#F5F1E6" filter="url(#ledGlowWm)"/>
  <rect x="243.80" y="72.00" width="16" height="16" rx="3.20" fill="rgba(255,255,255,0.05)"/>
  <rect x="261.80" y="72.00" width="16" height="16" rx="3.20" fill="rgba(255,255,255,0.05)"/>
  <rect x="279.80" y="72.00" width="16" height="16" rx="3.20" fill="rgba(255,255,255,0.05)"/>
  <rect x="297.80" y="72.00" width="16" height="16" rx="3.20" fill="#F5F1E6" filter="url(#ledGlowWm)"/>
  <rect x="225.80" y="90.00" width="16" height="16" rx="3.20" fill="#F5F1E6" filter="url(#ledGlowWm)"/>
  <rect x="243.80" y="90.00" width="16" height="16" rx="3.20" fill="rgba(255,255,255,0.05)"/>
  <rect x="261.80" y="90.00" width="16" height="16" rx="3.20" fill="rgba(255,255,255,0.05)"/>
  <rect x="279.80" y="90.00" width="16" height="16" rx="3.20" fill="rgba(255,255,255,0.05)"/>
  <rect x="297.80" y="90.00" width="16" height="16" rx="3.20" fill="#F5F1E6" filter="url(#ledGlowWm)"/>
  <rect x="225.80" y="108.00" width="16" height="16" rx="3.20" fill="#F5F1E6" filter="url(#ledGlowWm)"/>
  <rect x="243.80" y="108.00" width="16" height="16" rx="3.20" fill="#F5F1E6" filter="url(#ledGlowWm)"/>
  <rect x="261.80" y="108.00" width="16" height="16" rx="3.20" fill="#F5F1E6" filter="url(#ledGlowWm)"/>
  <rect x="279.80" y="108.00" width="16" height="16" rx="3.20" fill="#F5F1E6" filter="url(#ledGlowWm)"/>
  <rect x="297.80" y="108.00" width="16" height="16" rx="3.20" fill="rgba(255,255,255,0.05)"/>
  <rect x="319.80" y="0.00" width="16" height="16" rx="3.20" fill="rgba(255,255,255,0.05)"/>
  <rect x="337.80" y="0.00" width="16" height="16" rx="3.20" fill="#F5F1E6" filter="url(#ledGlowWm)"/>
  <rect x="355.80" y="0.00" width="16" height="16" rx="3.20" fill="#F5F1E6" filter="url(#ledGlowWm)"/>
  <rect x="373.80" y="0.00" width="16" height="16" rx="3.20" fill="#F5F1E6" filter="url(#ledGlowWm)"/>
  <rect x="391.80" y="0.00" width="16" height="16" rx="3.20" fill="rgba(255,255,255,0.05)"/>
  <rect x="319.80" y="18.00" width="16" height="16" rx="3.20" fill="#F5F1E6" filter="url(#ledGlowWm)"/>
  <rect x="337.80" y="18.00" width="16" height="16" rx="3.20" fill="rgba(255,255,255,0.05)"/>
  <rect x="355.80" y="18.00" width="16" height="16" rx="3.20" fill="rgba(255,255,255,0.05)"/>
  <rect x="373.80" y="18.00" width="16" height="16" rx="3.20" fill="rgba(255,255,255,0.05)"/>
  <rect x="391.80" y="18.00" width="16" height="16" rx="3.20" fill="#F5F1E6" filter="url(#ledGlowWm)"/>
  <rect x="319.80" y="36.00" width="16" height="16" rx="3.20" fill="#F5F1E6" filter="url(#ledGlowWm)"/>
  <rect x="337.80" y="36.00" width="16" height="16" rx="3.20" fill="rgba(255,255,255,0.05)"/>
  <rect x="355.80" y="36.00" width="16" height="16" rx="3.20" fill="rgba(255,255,255,0.05)"/>
  <rect x="373.80" y="36.00" width="16" height="16" rx="3.20" fill="rgba(255,255,255,0.05)"/>
  <rect x="391.80" y="36.00" width="16" height="16" rx="3.20" fill="#F5F1E6" filter="url(#ledGlowWm)"/>
  <rect x="319.80" y="54.00" width="16" height="16" rx="3.20" fill="#F5F1E6" filter="url(#ledGlowWm)"/>
  <rect x="337.80" y="54.00" width="16" height="16" rx="3.20" fill="#F5F1E6" filter="url(#ledGlowWm)"/>
  <rect x="355.80" y="54.00" width="16" height="16" rx="3.20" fill="#F5F1E6" filter="url(#ledGlowWm)"/>
  <rect x="373.80" y="54.00" width="16" height="16" rx="3.20" fill="#F5F1E6" filter="url(#ledGlowWm)"/>
  <rect x="391.80" y="54.00" width="16" height="16" rx="3.20" fill="#F5F1E6" filter="url(#ledGlowWm)"/>
  <rect x="319.80" y="72.00" width="16" height="16" rx="3.20" fill="#F5F1E6" filter="url(#ledGlowWm)"/>
  <rect x="337.80" y="72.00" width="16" height="16" rx="3.20" fill="rgba(255,255,255,0.05)"/>
  <rect x="355.80" y="72.00" width="16" height="16" rx="3.20" fill="rgba(255,255,255,0.05)"/>
  <rect x="373.80" y="72.00" width="16" height="16" rx="3.20" fill="rgba(255,255,255,0.05)"/>
  <rect x="391.80" y="72.00" width="16" height="16" rx="3.20" fill="#F5F1E6" filter="url(#ledGlowWm)"/>
  <rect x="319.80" y="90.00" width="16" height="16" rx="3.20" fill="#F5F1E6" filter="url(#ledGlowWm)"/>
  <rect x="337.80" y="90.00" width="16" height="16" rx="3.20" fill="rgba(255,255,255,0.05)"/>
  <rect x="355.80" y="90.00" width="16" height="16" rx="3.20" fill="rgba(255,255,255,0.05)"/>
  <rect x="373.80" y="90.00" width="16" height="16" rx="3.20" fill="rgba(255,255,255,0.05)"/>
  <rect x="391.80" y="90.00" width="16" height="16" rx="3.20" fill="#F5F1E6" filter="url(#ledGlowWm)"/>
  <rect x="319.80" y="108.00" width="16" height="16" rx="3.20" fill="#F5F1E6" filter="url(#ledGlowWm)"/>
  <rect x="337.80" y="108.00" width="16" height="16" rx="3.20" fill="rgba(255,255,255,0.05)"/>
  <rect x="355.80" y="108.00" width="16" height="16" rx="3.20" fill="rgba(255,255,255,0.05)"/>
  <rect x="373.80" y="108.00" width="16" height="16" rx="3.20" fill="rgba(255,255,255,0.05)"/>
  <rect x="391.80" y="108.00" width="16" height="16" rx="3.20" fill="#F5F1E6" filter="url(#ledGlowWm)"/>
  <rect x="413.80" y="0.00" width="16" height="16" rx="3.20" fill="rgba(255,255,255,0.05)"/>
  <rect x="431.80" y="0.00" width="16" height="16" rx="3.20" fill="#F5F1E6" filter="url(#ledGlowWm)"/>
  <rect x="449.80" y="0.00" width="16" height="16" rx="3.20" fill="#F5F1E6" filter="url(#ledGlowWm)"/>
  <rect x="467.80" y="0.00" width="16" height="16" rx="3.20" fill="#F5F1E6" filter="url(#ledGlowWm)"/>
  <rect x="485.80" y="0.00" width="16" height="16" rx="3.20" fill="#F5F1E6" filter="url(#ledGlowWm)"/>
  <rect x="413.80" y="18.00" width="16" height="16" rx="3.20" fill="#F5F1E6" filter="url(#ledGlowWm)"/>
  <rect x="431.80" y="18.00" width="16" height="16" rx="3.20" fill="rgba(255,255,255,0.05)"/>
  <rect x="449.80" y="18.00" width="16" height="16" rx="3.20" fill="rgba(255,255,255,0.05)"/>
  <rect x="467.80" y="18.00" width="16" height="16" rx="3.20" fill="rgba(255,255,255,0.05)"/>
  <rect x="485.80" y="18.00" width="16" height="16" rx="3.20" fill="rgba(255,255,255,0.05)"/>
  <rect x="413.80" y="36.00" width="16" height="16" rx="3.20" fill="#F5F1E6" filter="url(#ledGlowWm)"/>
  <rect x="431.80" y="36.00" width="16" height="16" rx="3.20" fill="rgba(255,255,255,0.05)"/>
  <rect x="449.80" y="36.00" width="16" height="16" rx="3.20" fill="rgba(255,255,255,0.05)"/>
  <rect x="467.80" y="36.00" width="16" height="16" rx="3.20" fill="rgba(255,255,255,0.05)"/>
  <rect x="485.80" y="36.00" width="16" height="16" rx="3.20" fill="rgba(255,255,255,0.05)"/>
  <rect x="413.80" y="54.00" width="16" height="16" rx="3.20" fill="rgba(255,255,255,0.05)"/>
  <rect x="431.80" y="54.00" width="16" height="16" rx="3.20" fill="#F5F1E6" filter="url(#ledGlowWm)"/>
  <rect x="449.80" y="54.00" width="16" height="16" rx="3.20" fill="#F5F1E6" filter="url(#ledGlowWm)"/>
  <rect x="467.80" y="54.00" width="16" height="16" rx="3.20" fill="#F5F1E6" filter="url(#ledGlowWm)"/>
  <rect x="485.80" y="54.00" width="16" height="16" rx="3.20" fill="rgba(255,255,255,0.05)"/>
  <rect x="413.80" y="72.00" width="16" height="16" rx="3.20" fill="rgba(255,255,255,0.05)"/>
  <rect x="431.80" y="72.00" width="16" height="16" rx="3.20" fill="rgba(255,255,255,0.05)"/>
  <rect x="449.80" y="72.00" width="16" height="16" rx="3.20" fill="rgba(255,255,255,0.05)"/>
  <rect x="467.80" y="72.00" width="16" height="16" rx="3.20" fill="rgba(255,255,255,0.05)"/>
  <rect x="485.80" y="72.00" width="16" height="16" rx="3.20" fill="#F5F1E6" filter="url(#ledGlowWm)"/>
  <rect x="413.80" y="90.00" width="16" height="16" rx="3.20" fill="rgba(255,255,255,0.05)"/>
  <rect x="431.80" y="90.00" width="16" height="16" rx="3.20" fill="rgba(255,255,255,0.05)"/>
  <rect x="449.80" y="90.00" width="16" height="16" rx="3.20" fill="rgba(255,255,255,0.05)"/>
  <rect x="467.80" y="90.00" width="16" height="16" rx="3.20" fill="rgba(255,255,255,0.05)"/>
  <rect x="485.80" y="90.00" width="16" height="16" rx="3.20" fill="#F5F1E6" filter="url(#ledGlowWm)"/>
  <rect x="413.80" y="108.00" width="16" height="16" rx="3.20" fill="#F5F1E6" filter="url(#ledGlowWm)"/>
  <rect x="431.80" y="108.00" width="16" height="16" rx="3.20" fill="#F5F1E6" filter="url(#ledGlowWm)"/>
  <rect x="449.80" y="108.00" width="16" height="16" rx="3.20" fill="#F5F1E6" filter="url(#ledGlowWm)"/>
  <rect x="467.80" y="108.00" width="16" height="16" rx="3.20" fill="#F5F1E6" filter="url(#ledGlowWm)"/>
  <rect x="485.80" y="108.00" width="16" height="16" rx="3.20" fill="rgba(255,255,255,0.05)"/>
  <rect x="507.80" y="0.00" width="16" height="16" rx="3.20" fill="#F5F1E6" filter="url(#ledGlowWm)"/>
  <rect x="525.80" y="0.00" width="16" height="16" rx="3.20" fill="#F5F1E6" filter="url(#ledGlowWm)"/>
  <rect x="543.80" y="0.00" width="16" height="16" rx="3.20" fill="#F5F1E6" filter="url(#ledGlowWm)"/>
  <rect x="561.80" y="0.00" width="16" height="16" rx="3.20" fill="#F5F1E6" filter="url(#ledGlowWm)"/>
  <rect x="579.80" y="0.00" width="16" height="16" rx="3.20" fill="#F5F1E6" filter="url(#ledGlowWm)"/>
  <rect x="507.80" y="18.00" width="16" height="16" rx="3.20" fill="#F5F1E6" filter="url(#ledGlowWm)"/>
  <rect x="525.80" y="18.00" width="16" height="16" rx="3.20" fill="rgba(255,255,255,0.05)"/>
  <rect x="543.80" y="18.00" width="16" height="16" rx="3.20" fill="rgba(255,255,255,0.05)"/>
  <rect x="561.80" y="18.00" width="16" height="16" rx="3.20" fill="rgba(255,255,255,0.05)"/>
  <rect x="579.80" y="18.00" width="16" height="16" rx="3.20" fill="rgba(255,255,255,0.05)"/>
  <rect x="507.80" y="36.00" width="16" height="16" rx="3.20" fill="#F5F1E6" filter="url(#ledGlowWm)"/>
  <rect x="525.80" y="36.00" width="16" height="16" rx="3.20" fill="rgba(255,255,255,0.05)"/>
  <rect x="543.80" y="36.00" width="16" height="16" rx="3.20" fill="rgba(255,255,255,0.05)"/>
  <rect x="561.80" y="36.00" width="16" height="16" rx="3.20" fill="rgba(255,255,255,0.05)"/>
  <rect x="579.80" y="36.00" width="16" height="16" rx="3.20" fill="rgba(255,255,255,0.05)"/>
  <rect x="507.80" y="54.00" width="16" height="16" rx="3.20" fill="#F5F1E6" filter="url(#ledGlowWm)"/>
  <rect x="525.80" y="54.00" width="16" height="16" rx="3.20" fill="#F5F1E6" filter="url(#ledGlowWm)"/>
  <rect x="543.80" y="54.00" width="16" height="16" rx="3.20" fill="#F5F1E6" filter="url(#ledGlowWm)"/>
  <rect x="561.80" y="54.00" width="16" height="16" rx="3.20" fill="#F5F1E6" filter="url(#ledGlowWm)"/>
  <rect x="579.80" y="54.00" width="16" height="16" rx="3.20" fill="rgba(255,255,255,0.05)"/>
  <rect x="507.80" y="72.00" width="16" height="16" rx="3.20" fill="#F5F1E6" filter="url(#ledGlowWm)"/>
  <rect x="525.80" y="72.00" width="16" height="16" rx="3.20" fill="rgba(255,255,255,0.05)"/>
  <rect x="543.80" y="72.00" width="16" height="16" rx="3.20" fill="rgba(255,255,255,0.05)"/>
  <rect x="561.80" y="72.00" width="16" height="16" rx="3.20" fill="rgba(255,255,255,0.05)"/>
  <rect x="579.80" y="72.00" width="16" height="16" rx="3.20" fill="rgba(255,255,255,0.05)"/>
  <rect x="507.80" y="90.00" width="16" height="16" rx="3.20" fill="#F5F1E6" filter="url(#ledGlowWm)"/>
  <rect x="525.80" y="90.00" width="16" height="16" rx="3.20" fill="rgba(255,255,255,0.05)"/>
  <rect x="543.80" y="90.00" width="16" height="16" rx="3.20" fill="rgba(255,255,255,0.05)"/>
  <rect x="561.80" y="90.00" width="16" height="16" rx="3.20" fill="rgba(255,255,255,0.05)"/>
  <rect x="579.80" y="90.00" width="16" height="16" rx="3.20" fill="rgba(255,255,255,0.05)"/>
  <rect x="507.80" y="108.00" width="16" height="16" rx="3.20" fill="#F5F1E6" filter="url(#ledGlowWm)"/>
  <rect x="525.80" y="108.00" width="16" height="16" rx="3.20" fill="#F5F1E6" filter="url(#ledGlowWm)"/>
  <rect x="543.80" y="108.00" width="16" height="16" rx="3.20" fill="#F5F1E6" filter="url(#ledGlowWm)"/>
  <rect x="561.80" y="108.00" width="16" height="16" rx="3.20" fill="#F5F1E6" filter="url(#ledGlowWm)"/>
  <rect x="579.80" y="108.00" width="16" height="16" rx="3.20" fill="#F5F1E6" filter="url(#ledGlowWm)"/>
</svg>
